# xmcd
#
# Track frame offsets: 
#        150
#        14774
#        32589
#        49686
#        66803
#        85066
#        104167
#        119765
#        134091
#        149083
#        170729
#        186069
#        201984
#        218729
#
# Disc length: 3127 seconds
#
# Revision: 0
# Processed by: cddbd v1.5.2PL0 Copyright (c) Steve Scherf et al.
# Submitted via: ExactAudioCopyFreeDBPlugin 1.0
#
DISCID=e30c350e
DTITLE=Jaheim - Appreciation Day
DYEAR=2013
DGENRE=R&B
TTITLE0=Age Ain't A Factor
TTITLE1=He Don't Exist
TTITLE2=Morning
TTITLE3=What She Really Means
TTITLE4=Pussy Appreciation Day
TTITLE5=Baby X3
TTITLE6=Shower Scene
TTITLE7=Sexting
TTITLE8=I Found You
TTITLE9=Florida
TTITLE10=Sticks N Stones
TTITLE11=First Time
TTITLE12=Blame Me
TTITLE13=Chase Forever
EXTD=
EXTT0=
EXTT1=
EXTT2=
EXTT3=
EXTT4=
EXTT5=
EXTT6=
EXTT7=
EXTT8=
EXTT9=
EXTT10=
EXTT11=
EXTT12=
EXTT13=
PLAYORDER=
